<svg xmlns="http://www.w3.org/2000/svg" viewBox="0 0 100 100" aria-label="Alignment">
  <title>Alignment</title>
  <path d="M 79.455 73.455 L 79.182 74.000 L 79.182 74.818 L 79.455 75.364 L 80.818 75.909 L 81.909 75.909 L 82.182 75.636 L 82.727 75.636 L 83.273 74.818 L 83.273 74.000 L 82.182 72.909 L 81.636 72.636 L 80.818 72.636 L 79.727 73.182 Z M 15.364 74.000 L 15.364 74.545 L 16.455 75.636 L 17.000 75.909 L 18.636 75.909 L 19.455 75.636 L 20.273 74.818 L 20.273 73.727 L 19.727 73.182 L 18.909 72.636 L 17.273 72.636 L 16.182 73.182 Z M 90.364 63.364 L 90.091 63.909 L 90.091 67.727 L 89.545 68.273 L 89.000 68.273 L 88.182 69.091 L 87.909 69.636 L 87.909 72.364 L 87.091 73.182 L 86.273 73.455 L 86.000 74.818 L 86.273 75.364 L 87.091 75.636 L 87.909 76.455 L 87.909 79.727 L 88.182 80.273 L 89.273 81.091 L 93.091 81.091 L 93.909 80.545 L 94.455 80.000 L 94.727 79.455 L 94.727 69.909 L 94.455 69.091 L 93.909 68.545 L 93.091 68.273 L 92.273 67.455 L 92.273 66.636 L 92.545 64.455 L 92.273 63.909 L 92.000 63.636 L 91.455 63.364 Z M 91.727 71.273 L 92.273 71.818 L 92.000 75.636 L 92.273 76.727 L 92.273 77.273 L 91.182 78.091 L 90.364 77.273 L 90.364 72.091 L 90.909 71.545 Z M 8.545 63.091 L 8.000 63.364 L 7.455 63.909 L 7.455 64.455 L 7.182 65.000 L 7.455 67.455 L 6.636 68.273 L 5.273 69.364 L 5.000 70.182 L 5.273 79.727 L 6.364 80.818 L 6.909 81.091 L 10.455 81.091 L 11.000 80.818 L 11.818 80.000 L 11.818 76.182 L 12.909 75.091 L 12.909 73.455 L 12.091 72.636 L 11.818 72.091 L 11.818 69.364 L 11.545 68.818 L 11.000 68.273 L 10.455 68.273 L 9.636 67.455 L 9.909 65.545 L 9.909 64.727 L 9.636 63.636 L 9.091 63.091 Z M 8.273 71.273 L 9.364 71.545 L 9.636 72.091 L 9.636 76.182 L 9.364 77.545 L 8.818 78.091 L 8.273 78.091 L 7.727 77.545 L 7.727 71.818 Z M 90.091 53.818 L 89.818 54.636 L 89.818 57.636 L 90.091 58.727 L 90.364 59.273 L 90.909 59.545 L 91.455 59.545 L 92.000 59.273 L 92.273 59.000 L 92.545 58.455 L 92.545 54.364 L 92.273 53.818 Z M 8.545 53.000 L 8.000 53.273 L 7.455 53.818 L 7.182 54.364 L 7.182 58.455 L 7.455 59.000 L 7.727 59.273 L 8.273 59.545 L 9.091 59.545 L 9.636 59.000 L 9.909 58.182 L 9.909 54.091 L 9.636 53.545 L 9.091 53.000 Z M 90.636 42.091 L 90.091 42.636 L 90.091 43.455 L 89.818 43.727 L 89.818 44.273 L 90.091 47.818 L 90.364 48.364 L 90.909 48.636 L 91.727 48.636 L 92.273 48.364 L 92.545 47.818 L 92.545 43.455 L 92.273 42.636 L 91.727 42.091 Z M 8.273 42.091 L 7.727 42.364 L 7.182 43.455 L 7.182 47.818 L 7.455 48.364 L 8.000 48.636 L 9.364 48.636 L 9.909 48.091 L 10.182 47.545 L 10.182 45.636 L 9.909 45.364 L 9.909 43.182 L 9.364 42.091 Z M 79.182 25.727 L 79.182 27.364 L 79.727 27.909 L 82.455 27.909 L 83.000 27.364 L 83.000 26.545 L 82.727 26.000 L 82.182 25.455 L 79.727 25.455 Z M 15.364 26.273 L 15.364 27.091 L 15.636 27.636 L 16.727 28.182 L 18.909 28.182 L 19.727 27.909 L 20.273 27.364 L 20.273 26.545 L 19.455 25.727 L 18.909 25.455 L 16.727 25.455 L 15.909 25.727 Z M 90.636 19.727 L 89.273 20.000 L 88.182 21.091 L 88.182 23.818 L 87.909 24.636 L 87.364 25.182 L 86.000 25.727 L 85.727 26.273 L 85.727 27.091 L 86.000 27.636 L 86.273 27.909 L 87.091 28.182 L 88.182 29.273 L 88.182 31.727 L 90.091 33.636 L 90.091 37.455 L 90.636 38.000 L 91.455 38.000 L 92.000 37.727 L 92.545 37.182 L 92.273 34.182 L 92.545 33.364 L 92.818 32.818 L 93.091 32.545 L 94.455 32.000 L 94.727 31.455 L 94.727 21.364 L 94.182 20.273 L 93.636 20.000 L 91.182 19.727 Z M 90.909 23.000 L 91.727 23.000 L 92.273 23.545 L 92.273 29.000 L 91.727 29.545 L 90.909 29.545 L 90.364 29.000 L 90.364 23.545 Z M 8.545 19.182 L 6.636 20.273 L 5.818 20.273 L 5.273 20.818 L 5.000 21.636 L 5.000 31.455 L 5.273 32.000 L 5.818 32.545 L 6.636 32.818 L 7.182 33.364 L 7.455 34.182 L 7.182 36.909 L 7.455 37.455 L 7.727 37.727 L 8.273 38.000 L 9.091 38.000 L 9.636 37.727 L 10.182 36.636 L 10.182 35.818 L 9.909 34.182 L 10.455 33.091 L 11.545 32.273 L 11.818 32.000 L 12.091 31.455 L 12.091 29.000 L 12.364 28.455 L 13.182 27.636 L 12.909 25.727 L 12.636 25.727 L 12.091 25.182 L 11.818 24.636 L 11.818 21.091 L 11.545 20.545 L 11.000 20.000 L 9.636 19.455 Z M 8.818 23.000 L 9.364 23.545 L 9.636 24.091 L 9.364 29.545 L 8.273 29.818 L 7.727 29.273 L 7.455 24.091 L 7.727 23.545 L 8.273 23.000 Z M 36.364 8.000 L 35.000 9.091 L 34.182 9.091 L 32.818 10.182 L 31.182 11.818 L 30.091 13.182 L 30.091 14.000 L 29.818 14.545 L 29.273 15.091 L 29.000 15.909 L 28.727 18.909 L 28.727 23.818 L 28.182 24.364 L 27.364 24.636 L 26.545 24.636 L 25.182 25.455 L 24.636 26.000 L 24.364 27.091 L 24.364 29.818 L 24.636 32.000 L 24.909 32.545 L 26.000 33.636 L 27.636 34.455 L 28.727 34.727 L 29.000 35.273 L 28.727 65.545 L 29.000 65.818 L 29.000 66.364 L 28.182 67.182 L 27.636 67.182 L 26.273 68.000 L 24.636 69.636 L 24.364 72.091 L 24.364 73.455 L 24.636 75.091 L 25.727 76.182 L 26.545 76.727 L 27.364 76.727 L 28.182 77.000 L 28.727 77.545 L 28.727 81.364 L 29.000 84.364 L 29.273 84.909 L 30.091 86.000 L 30.091 86.818 L 30.909 87.636 L 31.455 88.727 L 32.545 89.818 L 34.182 90.909 L 34.727 91.182 L 35.545 91.182 L 37.455 92.273 L 61.455 92.273 L 62.273 92.000 L 62.818 91.455 L 63.636 91.182 L 64.727 91.182 L 65.818 90.091 L 66.364 90.091 L 68.545 87.909 L 69.364 86.818 L 69.636 86.273 L 69.636 85.727 L 70.455 84.636 L 70.727 83.818 L 70.727 77.818 L 71.000 77.273 L 72.636 77.000 L 73.727 76.455 L 74.000 76.182 L 74.818 75.091 L 75.091 74.545 L 75.091 69.909 L 74.818 69.364 L 73.455 68.000 L 73.182 68.000 L 72.091 66.909 L 71.545 66.909 L 71.000 66.364 L 70.727 65.818 L 70.727 35.000 L 71.545 34.182 L 73.727 33.364 L 75.091 32.000 L 75.091 26.818 L 74.818 26.273 L 74.000 25.455 L 72.091 24.364 L 71.818 24.364 L 71.273 24.091 L 70.727 20.273 L 70.727 16.455 L 70.455 15.364 L 69.636 14.273 L 69.636 13.727 L 69.364 13.182 L 68.273 11.545 L 67.182 10.455 L 65.545 9.364 L 65.000 9.091 L 64.455 9.091 L 63.909 8.818 L 63.364 8.273 L 62.818 8.000 L 60.091 7.727 L 56.273 7.455 L 41.273 7.455 L 38.273 7.727 Z M 36.909 11.545 L 40.455 11.000 L 59.818 11.000 L 62.818 11.545 L 63.636 12.364 L 64.182 12.364 L 64.727 12.636 L 66.091 14.000 L 66.364 14.545 L 66.364 15.091 L 66.909 15.636 L 67.182 16.182 L 67.455 18.636 L 67.455 26.545 L 68.273 27.909 L 68.273 28.455 L 68.545 29.000 L 69.364 29.273 L 71.000 28.182 L 72.091 29.273 L 72.091 29.818 L 71.273 30.636 L 69.636 30.636 L 68.273 32.000 L 68.000 32.818 L 67.455 33.636 L 67.455 62.273 L 67.727 68.545 L 68.273 69.909 L 68.818 70.455 L 69.909 71.000 L 71.000 71.273 L 71.545 71.818 L 71.545 73.182 L 69.909 73.455 L 69.364 73.727 L 68.273 74.545 L 67.727 75.364 L 67.455 75.909 L 67.182 76.727 L 67.455 81.636 L 67.182 83.818 L 66.909 84.364 L 66.091 85.182 L 66.091 86.000 L 65.545 86.545 L 65.273 86.545 L 64.455 87.364 L 63.909 87.636 L 62.545 87.909 L 62.000 88.455 L 61.455 88.727 L 38.000 88.727 L 35.545 87.636 L 34.182 86.545 L 33.636 86.000 L 33.636 85.727 L 32.818 84.909 L 32.545 84.364 L 32.273 83.273 L 32.273 82.182 L 31.727 81.091 L 32.000 76.455 L 31.727 75.364 L 31.455 74.818 L 30.909 74.273 L 30.636 74.273 L 29.818 73.455 L 28.727 73.455 L 27.909 72.636 L 27.909 72.091 L 28.455 71.000 L 28.727 70.727 L 29.273 70.455 L 30.636 70.182 L 31.455 69.364 L 31.727 68.545 L 32.000 67.455 L 32.273 65.818 L 32.273 34.455 L 31.455 32.273 L 30.636 31.455 L 29.818 30.909 L 28.727 30.909 L 27.909 30.091 L 27.636 29.273 L 27.909 28.727 L 28.727 27.909 L 30.091 27.909 L 30.636 27.636 L 31.455 26.818 L 31.727 26.000 L 32.000 22.727 L 32.000 20.000 L 32.545 16.182 L 32.818 15.636 L 33.636 14.273 L 35.273 12.636 L 36.091 12.364 L 36.364 11.818 Z M 65.273 70.727 L 65.000 70.182 L 64.455 69.636 L 64.182 69.091 L 63.909 67.727 L 63.091 66.909 L 63.091 66.364 L 62.545 65.818 L 62.273 65.818 L 61.455 65.000 L 60.909 64.727 L 60.364 65.000 L 59.818 65.000 L 59.273 65.545 L 58.727 65.818 L 55.455 65.818 L 52.727 66.364 L 46.182 66.364 L 43.727 65.818 L 40.727 65.818 L 38.545 65.000 L 37.727 65.273 L 37.182 65.545 L 36.636 66.091 L 36.636 66.364 L 35.818 67.182 L 34.455 69.636 L 34.182 70.455 L 33.909 72.091 L 34.182 73.182 L 34.455 73.727 L 35.273 74.545 L 37.182 75.636 L 38.000 75.909 L 39.909 75.909 L 40.727 76.182 L 41.273 76.727 L 41.818 77.000 L 56.818 77.000 L 58.727 76.727 L 60.091 75.909 L 61.455 75.909 L 62.000 75.636 L 63.091 74.818 L 63.636 74.818 L 65.273 73.182 Z M 38.000 70.727 L 38.273 70.182 L 38.818 69.636 L 39.091 68.818 L 40.455 68.545 L 41.545 69.364 L 44.273 69.636 L 53.818 69.636 L 58.182 69.364 L 59.545 68.545 L 60.091 68.545 L 60.636 69.091 L 60.636 69.636 L 61.455 70.455 L 61.727 71.000 L 61.727 71.818 L 61.182 72.364 L 60.636 72.636 L 57.636 73.455 L 55.455 73.455 L 51.909 74.273 L 48.364 74.273 L 44.818 73.455 L 42.091 73.455 L 40.727 72.636 L 39.909 72.364 L 38.000 72.091 Z M 33.636 27.909 L 33.636 29.545 L 34.182 30.091 L 34.455 31.727 L 35.545 33.091 L 35.545 33.909 L 35.818 34.455 L 36.636 35.545 L 37.182 35.545 L 37.455 35.818 L 38.545 35.818 L 39.909 35.545 L 41.000 35.273 L 42.091 34.727 L 43.455 34.455 L 56.000 34.455 L 56.818 34.727 L 57.636 35.273 L 59.273 35.545 L 61.727 35.545 L 63.091 34.182 L 63.909 33.091 L 64.182 32.545 L 64.182 32.000 L 65.000 30.909 L 65.273 30.364 L 65.545 29.000 L 65.545 27.091 L 65.273 26.545 L 64.455 25.727 L 61.455 24.364 L 60.091 24.091 L 58.727 24.091 L 56.818 23.273 L 51.636 23.000 L 45.909 23.000 L 42.364 23.273 L 40.455 24.091 L 39.364 24.364 L 37.727 24.364 L 37.182 24.636 L 36.364 25.455 L 35.545 25.727 L 35.000 26.273 L 34.727 26.273 L 34.455 26.545 L 34.455 26.818 L 33.909 27.364 Z M 37.727 28.455 L 38.273 27.909 L 40.455 27.636 L 41.273 27.091 L 42.091 26.818 L 44.818 26.818 L 47.000 26.273 L 50.545 26.273 L 56.818 26.818 L 57.636 27.091 L 58.455 27.636 L 59.545 27.909 L 60.909 27.909 L 61.727 28.727 L 61.727 30.364 L 60.909 31.182 L 60.909 31.455 L 60.364 32.000 L 58.182 32.000 L 56.818 31.727 L 55.727 31.182 L 53.818 30.909 L 44.818 30.909 L 43.455 31.182 L 41.000 32.000 L 39.091 32.000 L 38.000 30.909 L 37.727 30.091 Z" fill="currentColor" fill-rule="evenodd" clip-rule="evenodd"/>
</svg>
