<svg xmlns="http://www.w3.org/2000/svg" viewBox="0 0 100 100" aria-label="Flood Damage">
  <title>Flood Damage</title>
  <path d="M 5.000 89.059 L 5.000 89.565 L 5.506 90.323 L 6.011 90.829 L 7.528 91.081 L 9.803 91.081 L 11.826 90.829 L 12.584 90.576 L 13.343 89.817 L 13.848 89.817 L 15.112 88.806 L 17.388 86.531 L 18.399 85.772 L 18.904 85.520 L 19.410 85.520 L 19.916 85.014 L 20.421 84.761 L 24.213 84.761 L 26.489 86.025 L 29.270 88.806 L 30.534 89.817 L 31.798 90.576 L 32.556 90.829 L 33.820 91.081 L 38.118 91.081 L 39.382 90.829 L 39.888 90.576 L 41.910 89.059 L 44.185 86.784 L 45.449 85.772 L 45.955 85.520 L 46.461 85.520 L 46.966 85.014 L 47.472 84.761 L 52.022 84.761 L 52.781 85.520 L 53.287 85.520 L 53.792 85.772 L 57.837 89.817 L 58.343 89.817 L 58.848 90.323 L 59.354 90.576 L 60.112 90.829 L 61.629 91.081 L 64.663 91.081 L 65.927 90.829 L 66.685 90.576 L 67.697 89.817 L 70.983 86.531 L 71.994 85.772 L 73.258 85.520 L 73.764 85.014 L 74.270 84.761 L 77.556 84.761 L 79.831 85.772 L 80.843 86.531 L 83.118 88.806 L 84.382 89.817 L 84.888 89.817 L 85.646 90.576 L 86.404 90.829 L 87.669 91.081 L 90.955 91.081 L 92.978 90.576 L 93.989 90.070 L 94.747 89.312 L 94.747 87.542 L 94.242 87.037 L 93.736 87.037 L 92.472 87.542 L 91.208 88.301 L 90.197 88.553 L 88.427 88.553 L 87.416 88.301 L 86.152 87.795 L 84.635 86.531 L 82.612 84.508 L 81.601 83.750 L 80.843 83.497 L 80.084 82.739 L 79.579 82.486 L 77.051 81.980 L 74.522 81.980 L 71.742 82.739 L 69.466 84.508 L 66.938 86.784 L 66.938 87.037 L 66.685 87.289 L 66.433 87.289 L 65.927 87.795 L 64.663 88.553 L 61.124 88.553 L 59.101 87.289 L 56.320 84.508 L 55.309 83.750 L 54.551 83.497 L 53.539 82.486 L 52.781 82.486 L 51.517 81.728 L 47.725 81.728 L 46.461 82.486 L 45.449 82.486 L 44.691 82.739 L 43.933 83.497 L 43.174 83.750 L 41.152 85.267 L 40.646 85.772 L 40.646 86.025 L 38.876 87.542 L 38.371 87.795 L 37.107 88.301 L 34.579 88.301 L 33.567 87.795 L 32.556 87.795 L 31.798 87.289 L 30.281 85.772 L 27.753 83.750 L 26.994 83.497 L 26.236 82.739 L 25.478 82.486 L 24.466 82.486 L 23.455 81.980 L 21.938 81.728 L 20.421 81.980 L 19.410 82.486 L 18.399 82.486 L 17.893 82.739 L 17.135 83.497 L 16.629 83.497 L 15.365 84.508 L 12.837 87.037 L 11.826 87.795 L 10.056 88.553 L 8.792 88.553 L 6.770 87.795 L 6.011 87.795 L 5.253 88.553 Z M 12.584 62.008 L 12.079 62.008 L 11.573 62.514 L 11.573 63.272 L 11.826 63.778 L 12.331 64.031 L 12.837 63.525 Z M 5.253 62.008 L 5.253 63.272 L 5.758 63.778 L 6.517 64.284 L 7.781 64.537 L 9.551 66.306 L 9.803 66.812 L 9.803 67.570 L 8.792 68.581 L 8.792 68.834 L 8.034 69.593 L 7.022 70.098 L 6.011 70.351 L 5.506 70.857 L 5.253 71.362 L 5.000 72.121 L 5.000 73.385 L 5.253 74.143 L 5.758 74.649 L 7.022 74.649 L 8.034 73.385 L 8.539 72.879 L 10.056 71.615 L 10.562 71.362 L 11.067 71.362 L 11.573 70.857 L 12.331 70.604 L 13.090 70.604 L 14.101 70.857 L 16.124 71.868 L 17.388 73.132 L 18.652 74.902 L 20.421 76.419 L 23.202 77.430 L 25.478 77.430 L 28.258 76.671 L 29.775 75.660 L 32.303 73.638 L 33.315 72.374 L 33.820 71.868 L 34.326 71.615 L 36.096 73.385 L 37.107 73.890 L 37.865 74.396 L 38.876 74.649 L 39.888 74.649 L 40.140 74.396 L 41.152 74.396 L 41.910 75.154 L 42.921 75.407 L 43.680 76.166 L 44.185 76.419 L 45.955 75.913 L 45.449 75.407 L 44.691 75.154 L 43.680 74.902 L 42.921 73.890 L 43.174 72.121 L 44.185 69.340 L 44.944 68.581 L 46.461 68.581 L 47.219 68.834 L 48.989 70.604 L 51.264 73.132 L 53.034 75.407 L 54.045 76.419 L 55.309 77.177 L 55.815 77.430 L 56.573 77.430 L 56.826 77.683 L 57.331 77.683 L 58.596 77.430 L 60.618 76.671 L 61.629 76.166 L 62.893 75.407 L 64.157 74.143 L 65.169 73.638 L 66.433 73.890 L 68.961 73.638 L 70.478 71.868 L 70.983 71.362 L 72.753 71.362 L 73.511 71.615 L 75.534 72.879 L 77.303 74.396 L 78.062 74.649 L 79.073 75.660 L 79.579 75.660 L 80.337 76.419 L 82.612 77.430 L 84.635 77.430 L 85.899 76.924 L 86.910 76.671 L 87.416 76.419 L 89.691 74.649 L 91.713 72.374 L 92.219 71.868 L 93.230 71.362 L 94.494 71.110 L 94.747 70.604 L 94.747 68.581 L 94.242 68.076 L 93.736 67.823 L 92.978 67.823 L 91.966 68.329 L 90.702 69.340 L 86.657 73.385 L 85.899 73.638 L 84.888 74.143 L 84.129 74.396 L 83.118 74.396 L 81.096 73.638 L 80.590 73.385 L 79.831 72.626 L 79.073 72.374 L 76.798 70.098 L 75.787 69.340 L 74.017 68.581 L 71.742 68.329 L 71.742 67.570 L 72.500 66.559 L 72.500 61.756 L 72.247 56.952 L 71.489 55.688 L 70.478 54.677 L 70.225 52.907 L 69.972 52.402 L 69.466 52.149 L 68.961 52.149 L 68.455 51.643 L 68.202 50.632 L 67.444 49.874 L 67.444 49.115 L 67.191 48.610 L 66.433 47.851 L 66.433 47.346 L 66.180 46.840 L 65.421 46.081 L 65.169 45.323 L 64.157 44.312 L 62.893 43.806 L 62.388 43.301 L 61.882 43.048 L 43.427 43.048 L 41.404 44.059 L 39.888 45.576 L 39.888 46.081 L 39.129 46.840 L 38.876 47.851 L 38.118 48.862 L 37.865 49.368 L 37.865 50.126 L 37.612 50.632 L 37.360 50.885 L 36.348 51.643 L 35.590 51.896 L 35.084 52.149 L 34.831 54.171 L 34.579 54.677 L 34.073 54.930 L 33.820 55.688 L 32.809 56.699 L 32.556 57.963 L 32.556 63.272 L 32.809 66.053 L 33.062 66.812 L 34.579 68.581 L 34.831 69.087 L 34.579 69.593 L 33.062 69.846 L 32.556 70.098 L 31.798 70.604 L 30.028 72.121 L 28.258 73.385 L 26.236 74.143 L 24.972 74.396 L 23.961 74.396 L 22.697 74.143 L 22.191 73.638 L 21.685 73.638 L 21.180 73.385 L 19.663 71.868 L 18.904 70.857 L 18.652 70.098 L 17.893 69.340 L 16.629 69.087 L 16.124 68.581 L 13.596 67.823 L 13.090 67.570 L 12.079 66.559 L 11.826 65.801 L 11.067 65.042 L 10.815 64.284 L 9.551 62.514 L 8.287 61.250 L 7.528 60.997 L 6.517 60.997 L 5.506 61.503 Z M 64.410 69.087 L 64.916 68.581 L 66.685 68.581 L 67.444 69.340 L 67.444 70.098 L 66.938 70.604 L 64.916 70.604 L 64.410 70.098 Z M 50.000 69.340 L 50.506 68.834 L 51.264 68.581 L 60.365 68.581 L 60.871 68.834 L 61.376 70.098 L 61.376 70.857 L 61.882 71.868 L 61.882 72.626 L 61.629 73.132 L 60.618 73.638 L 57.837 74.143 L 55.562 74.143 L 54.803 73.890 L 54.045 73.385 L 52.781 72.374 L 50.253 69.846 Z M 38.876 68.581 L 39.888 68.581 L 40.393 68.834 L 40.899 69.340 L 40.899 70.351 L 40.646 70.857 L 40.393 71.110 L 39.888 71.362 L 38.371 71.362 L 37.865 70.857 L 37.612 70.351 L 37.612 69.846 L 37.865 69.340 L 38.371 68.834 Z M 35.337 58.216 L 36.096 56.699 L 36.601 56.194 L 36.854 56.194 L 37.612 55.435 L 67.697 55.435 L 69.213 56.952 L 69.213 65.042 L 68.708 65.548 L 67.949 65.801 L 36.854 65.801 L 36.348 65.548 L 35.843 65.042 L 35.590 64.537 L 35.337 62.261 Z M 37.865 59.228 L 37.865 61.250 L 38.118 61.756 L 38.624 62.261 L 39.382 62.514 L 43.427 62.514 L 43.933 62.261 L 44.185 61.756 L 44.185 60.239 L 43.933 59.733 L 43.427 59.228 L 42.921 59.228 L 42.416 58.722 L 41.910 58.469 L 40.899 58.216 L 39.635 58.216 L 38.624 58.469 Z M 39.635 52.149 L 39.635 51.643 L 40.140 50.632 L 41.152 49.621 L 41.152 48.862 L 42.416 47.093 L 42.921 46.587 L 43.680 46.081 L 44.438 45.829 L 45.702 45.576 L 59.607 45.829 L 61.629 46.081 L 63.146 47.598 L 63.904 48.610 L 64.157 49.115 L 64.157 49.621 L 65.169 50.885 L 65.421 51.390 L 65.421 51.896 L 64.663 52.654 L 64.157 52.654 L 63.904 52.402 L 56.320 52.654 L 40.140 52.654 Z M 11.320 39.256 L 11.320 41.025 L 11.826 41.531 L 12.331 41.784 L 13.090 41.784 L 14.101 41.278 L 15.112 40.267 L 16.124 39.508 L 17.135 39.761 L 16.882 62.008 L 17.893 63.020 L 19.410 63.020 L 19.916 62.514 L 20.169 54.171 L 19.663 36.728 L 21.180 35.211 L 25.225 32.177 L 25.730 31.419 L 28.764 28.890 L 31.039 27.374 L 32.809 25.857 L 33.315 25.098 L 34.579 24.087 L 35.843 23.329 L 37.107 22.317 L 39.888 19.789 L 42.163 18.272 L 43.680 17.008 L 45.702 14.986 L 49.494 11.952 L 50.506 11.952 L 51.770 12.963 L 55.309 15.997 L 55.562 15.997 L 56.826 17.008 L 57.331 17.767 L 59.101 19.284 L 61.376 20.801 L 64.157 23.329 L 66.433 24.846 L 67.949 26.110 L 69.972 28.132 L 71.236 29.143 L 72.500 29.902 L 74.017 31.166 L 76.039 33.188 L 77.051 33.947 L 77.809 34.199 L 79.073 35.211 L 80.590 36.728 L 80.843 37.233 L 80.084 38.497 L 80.337 47.346 L 80.337 53.666 L 80.084 60.997 L 80.337 62.514 L 81.096 63.778 L 80.590 65.295 L 80.843 66.053 L 81.348 66.053 L 81.854 66.306 L 82.360 66.053 L 82.612 65.548 L 82.612 64.789 L 82.360 64.031 L 82.107 63.525 L 82.360 63.020 L 82.865 62.261 L 83.118 61.503 L 83.118 39.761 L 83.876 39.256 L 85.140 40.267 L 86.404 41.531 L 86.910 41.784 L 87.669 41.784 L 88.427 41.531 L 88.933 41.025 L 88.933 39.508 L 87.669 38.244 L 86.152 36.980 L 80.843 32.935 L 78.820 30.913 L 77.556 29.902 L 77.051 29.902 L 75.787 28.890 L 75.281 28.132 L 72.500 25.857 L 71.236 25.098 L 68.455 22.570 L 65.927 20.801 L 64.663 19.789 L 62.640 17.767 L 57.331 13.469 L 56.067 12.711 L 54.803 11.699 L 53.034 9.930 L 51.770 8.919 L 51.264 8.666 L 48.736 8.666 L 47.472 9.677 L 46.208 10.941 L 43.933 12.458 L 38.624 16.756 L 37.107 18.020 L 36.601 18.778 L 35.337 19.789 L 32.809 21.559 L 30.787 23.581 L 29.775 24.087 L 27.500 25.857 L 25.478 27.879 L 23.202 29.902 L 22.697 29.902 L 20.169 31.924 L 18.146 33.947 L 16.882 34.958 L 15.618 35.716 L 12.079 38.750 L 11.826 38.750 Z" fill="currentColor" fill-rule="evenodd" clip-rule="evenodd"/>
</svg>
