<svg xmlns="http://www.w3.org/2000/svg" viewBox="0 0 100 100" aria-label="Depreciation">
  <title>Depreciation</title>
  <path d="M 5.243 17.615 L 5.000 36.536 L 5.000 81.658 L 5.243 82.628 L 5.000 84.326 L 5.243 85.054 L 5.485 85.539 L 5.970 86.024 L 6.698 86.509 L 7.426 86.752 L 93.544 86.509 L 94.515 86.024 L 94.757 85.539 L 94.757 83.598 L 94.272 83.113 L 93.544 82.871 L 77.049 83.113 L 76.563 82.871 L 76.321 63.949 L 76.078 63.464 L 75.350 62.736 L 74.623 62.493 L 62.978 62.493 L 62.493 62.736 L 61.765 63.464 L 61.523 63.949 L 61.523 82.385 L 61.038 82.871 L 55.458 83.113 L 54.730 82.385 L 54.488 77.049 L 54.730 52.790 L 54.488 52.062 L 54.003 51.092 L 53.032 50.606 L 40.903 50.606 L 40.418 50.849 L 39.933 51.334 L 39.447 52.305 L 39.690 82.385 L 39.205 82.871 L 38.720 83.113 L 33.140 83.113 L 32.655 82.628 L 32.655 35.809 L 32.170 34.838 L 31.927 34.596 L 31.442 34.353 L 30.714 34.111 L 19.070 34.111 L 18.342 34.353 L 17.857 34.596 L 17.372 35.566 L 17.129 36.294 L 17.372 82.385 L 16.887 82.871 L 16.402 83.113 L 9.852 83.113 L 9.609 82.871 L 8.639 82.628 L 8.396 78.989 L 8.639 44.784 L 8.639 25.135 L 8.396 21.253 L 8.639 19.555 L 8.639 18.585 L 8.396 17.615 L 7.668 16.887 L 5.970 16.887 Z M 65.889 66.132 L 72.197 66.132 L 72.682 66.375 L 72.925 66.617 L 73.167 67.102 L 72.925 72.439 L 73.167 79.474 L 72.925 82.385 L 72.439 82.871 L 71.954 82.871 L 71.469 83.113 L 66.132 83.113 L 65.162 82.628 L 65.162 82.385 L 64.919 81.900 L 65.162 66.860 Z M 44.057 53.760 L 50.121 53.760 L 50.606 54.003 L 51.092 54.488 L 50.849 80.687 L 51.092 82.385 L 50.364 83.113 L 43.814 83.113 L 43.329 82.628 L 43.086 81.900 L 43.571 54.003 Z M 21.739 37.264 L 28.531 37.507 L 29.016 37.992 L 29.016 82.385 L 28.531 82.871 L 28.046 83.113 L 27.561 83.113 L 25.863 82.871 L 21.496 83.113 L 21.011 82.628 L 20.768 81.900 L 20.768 38.235 L 21.011 37.749 L 21.253 37.507 Z M 24.650 13.976 L 24.407 14.461 L 24.407 15.674 L 24.650 16.159 L 25.620 17.129 L 25.863 17.129 L 26.590 18.100 L 29.259 20.283 L 29.501 20.768 L 29.744 21.011 L 31.927 22.709 L 34.111 24.892 L 35.323 25.863 L 37.749 27.561 L 39.690 29.501 L 40.660 29.987 L 41.631 30.714 L 43.814 32.655 L 45.027 33.625 L 45.512 33.625 L 46.240 34.353 L 46.968 34.596 L 47.695 35.323 L 48.423 35.566 L 49.151 36.294 L 49.879 36.536 L 50.606 37.264 L 51.334 37.507 L 52.062 38.235 L 52.790 38.477 L 53.518 39.205 L 54.730 39.690 L 55.458 40.418 L 55.943 40.418 L 56.671 41.146 L 63.464 45.027 L 64.434 45.270 L 65.162 45.997 L 65.647 46.240 L 66.132 46.240 L 66.617 46.482 L 67.345 47.210 L 71.954 49.151 L 72.925 49.879 L 74.137 50.121 L 75.108 50.849 L 75.836 51.092 L 76.563 51.092 L 77.049 51.577 L 77.049 52.062 L 76.563 52.547 L 76.078 52.790 L 73.410 52.790 L 72.925 53.032 L 71.954 54.003 L 71.954 55.701 L 72.439 56.186 L 73.895 56.429 L 74.380 56.429 L 75.108 55.943 L 78.261 55.701 L 80.202 54.973 L 81.415 54.973 L 82.871 54.730 L 83.841 54.245 L 84.811 53.275 L 85.054 52.790 L 85.054 51.819 L 84.811 51.334 L 84.326 50.849 L 84.084 50.364 L 84.084 49.636 L 83.841 49.151 L 83.356 48.666 L 82.143 45.997 L 81.900 44.784 L 81.415 44.299 L 81.173 43.814 L 81.173 43.086 L 80.930 42.601 L 80.202 41.631 L 79.960 41.388 L 79.474 41.146 L 78.504 41.146 L 78.019 41.388 L 77.776 41.631 L 77.776 41.873 L 77.291 42.358 L 77.291 43.814 L 78.019 44.784 L 78.261 45.997 L 79.232 47.695 L 78.989 48.666 L 78.261 48.666 L 76.806 47.938 L 75.836 47.210 L 74.865 46.968 L 73.895 46.240 L 72.925 45.997 L 72.439 45.755 L 71.954 45.270 L 70.984 45.027 L 69.771 44.057 L 69.043 44.057 L 67.830 43.086 L 66.860 42.844 L 66.375 42.358 L 65.404 42.116 L 62.736 40.418 L 62.251 40.418 L 61.765 40.175 L 61.038 39.447 L 60.553 39.447 L 60.067 39.205 L 59.097 38.235 L 57.156 37.264 L 56.429 36.536 L 55.216 36.051 L 53.275 34.596 L 52.062 34.111 L 50.121 32.412 L 49.394 32.170 L 47.453 30.472 L 46.725 30.229 L 45.755 29.501 L 43.814 27.803 L 43.086 27.561 L 40.903 25.863 L 39.690 24.650 L 38.477 23.679 L 37.264 22.951 L 36.051 21.981 L 32.898 18.827 L 31.199 17.615 L 29.744 16.159 L 27.803 13.976 L 26.590 13.005 L 25.863 13.005 L 24.892 13.733 Z" fill="currentColor" fill-rule="evenodd" clip-rule="evenodd"/>
</svg>
