<svg xmlns="http://www.w3.org/2000/svg" viewBox="0 0 100 100" aria-label="NHTSA Bulletin">
  <title>NHTSA Bulletin</title>
  <path d="M 10.325 6.331 L 8.728 7.929 L 7.663 9.793 L 7.396 11.124 L 7.396 22.041 L 7.663 51.065 L 7.396 81.420 L 7.663 89.675 L 7.929 90.207 L 8.728 91.272 L 8.728 91.805 L 10.325 93.402 L 11.657 94.201 L 12.722 94.734 L 86.746 94.734 L 87.544 94.467 L 89.142 93.669 L 91.006 91.805 L 91.805 90.473 L 92.071 89.675 L 92.337 88.343 L 92.337 37.219 L 92.071 25.769 L 91.805 25.237 L 91.272 24.438 L 82.485 15.385 L 81.686 14.852 L 72.633 5.533 L 71.834 5.000 L 12.988 5.000 L 12.189 5.266 Z M 72.899 12.189 L 73.432 11.657 L 78.225 16.716 L 81.154 19.645 L 81.953 20.178 L 83.550 22.041 L 83.817 22.041 L 85.414 23.639 L 85.414 24.172 L 84.615 24.704 L 75.296 24.704 L 74.763 24.438 L 73.166 22.840 L 72.899 22.308 Z M 12.988 8.994 L 14.053 8.462 L 52.663 8.728 L 68.639 8.462 L 69.438 9.260 L 69.438 24.172 L 69.704 24.704 L 70.503 25.769 L 72.367 27.633 L 73.432 28.166 L 88.077 28.166 L 88.609 28.698 L 88.609 88.343 L 87.811 89.142 L 87.544 89.941 L 87.278 90.207 L 85.947 91.272 L 13.787 91.272 L 13.254 91.006 L 11.657 89.408 L 11.124 88.609 L 11.124 11.124 L 11.391 10.592 Z M 23.107 74.763 L 23.107 75.562 L 23.373 76.095 L 24.172 76.893 L 25.237 77.160 L 49.734 77.160 L 74.497 76.893 L 75.030 76.627 L 75.562 76.095 L 75.828 75.562 L 75.828 74.763 L 74.497 73.432 L 66.243 73.166 L 43.077 73.166 L 27.633 73.432 L 26.036 73.166 L 24.970 73.166 L 24.172 73.432 L 23.373 74.231 Z M 24.438 37.219 L 24.172 37.751 L 24.172 38.284 L 24.438 39.083 L 25.503 40.148 L 28.432 40.148 L 29.231 40.947 L 29.231 66.243 L 28.698 66.775 L 27.633 67.041 L 26.834 67.840 L 26.834 69.704 L 27.367 70.237 L 50.533 70.503 L 70.503 70.503 L 71.834 70.237 L 72.633 69.438 L 72.633 68.373 L 71.834 67.308 L 71.568 67.041 L 71.036 66.775 L 69.704 66.775 L 68.905 65.976 L 69.172 40.414 L 69.704 40.148 L 72.899 40.148 L 73.432 39.882 L 74.763 38.550 L 74.763 37.485 L 73.432 36.154 L 71.834 35.089 L 70.503 34.556 L 69.704 33.757 L 69.172 33.757 L 67.840 32.692 L 67.308 32.692 L 65.444 31.627 L 64.645 30.828 L 62.781 29.763 L 61.716 29.497 L 60.385 28.432 L 59.852 28.432 L 59.053 27.633 L 58.521 27.633 L 56.923 26.302 L 56.391 26.302 L 55.059 25.237 L 54.527 25.237 L 53.728 24.438 L 52.396 23.905 L 51.598 23.107 L 50.000 22.308 L 47.870 22.308 L 47.071 22.840 L 46.006 23.373 L 43.343 25.237 L 42.811 25.237 L 39.349 27.367 L 38.550 28.166 L 37.219 28.698 L 36.420 29.497 L 35.089 30.296 L 33.757 30.828 L 31.627 32.426 L 29.231 33.757 L 28.698 33.757 L 25.769 35.888 Z M 45.740 40.414 L 52.396 40.414 L 52.929 40.947 L 52.663 42.544 L 52.663 43.343 L 53.195 57.456 L 53.195 62.515 L 52.929 66.243 L 52.396 66.775 L 45.473 66.775 L 44.941 66.243 L 44.941 41.213 Z M 64.645 40.414 L 65.178 40.947 L 65.178 66.243 L 64.645 66.775 L 57.189 66.509 L 56.923 65.976 L 56.923 41.746 L 57.189 40.947 L 57.722 40.414 L 63.580 40.148 Z M 34.024 40.148 L 40.148 40.148 L 40.947 40.947 L 40.947 65.976 L 40.148 66.775 L 33.491 66.775 L 32.959 66.243 L 32.959 50.000 L 33.225 40.947 Z M 32.160 36.420 L 33.225 35.355 L 33.757 35.089 L 34.822 34.822 L 35.621 34.024 L 37.485 32.959 L 38.284 32.692 L 40.148 31.627 L 40.947 30.828 L 42.811 29.763 L 43.876 29.497 L 44.408 28.964 L 45.473 28.698 L 46.272 27.899 L 47.604 27.367 L 48.402 26.568 L 48.935 26.302 L 49.467 26.302 L 50.000 26.568 L 51.065 27.633 L 52.130 27.899 L 53.994 29.231 L 55.858 30.030 L 57.722 31.095 L 58.521 31.893 L 59.053 31.893 L 59.852 32.692 L 60.385 32.692 L 61.982 34.024 L 63.047 34.290 L 63.580 34.822 L 64.645 35.089 L 65.444 35.621 L 66.243 36.420 L 65.710 36.953 L 64.911 36.953 L 60.118 36.686 Z" fill="currentColor" fill-rule="evenodd" clip-rule="evenodd"/>
</svg>
