<svg xmlns="http://www.w3.org/2000/svg" viewBox="0 0 100 100" aria-label="Payment Failed">
  <title>Payment Failed</title>
  <path d="M 62.571 69.000 L 61.714 69.857 L 61.714 70.714 L 62.000 71.286 L 64.857 74.429 L 65.143 74.429 L 67.429 77.000 L 67.429 77.571 L 66.000 78.714 L 63.143 82.143 L 62.286 83.000 L 62.000 83.000 L 61.429 83.571 L 61.143 84.429 L 61.714 85.286 L 62.286 85.857 L 62.857 86.143 L 64.000 86.143 L 64.571 85.857 L 68.000 82.429 L 70.000 80.143 L 70.571 80.143 L 76.000 85.857 L 77.714 85.857 L 78.286 85.571 L 78.857 84.714 L 78.857 83.857 L 76.286 81.286 L 76.286 81.000 L 73.143 78.143 L 72.857 77.286 L 74.857 75.000 L 75.714 74.429 L 77.143 72.429 L 78.000 71.857 L 78.571 71.000 L 78.857 70.143 L 78.000 69.000 L 77.429 68.714 L 76.286 68.714 L 74.286 70.429 L 72.571 72.143 L 70.571 74.429 L 70.000 74.429 L 66.571 70.714 L 64.286 68.714 L 63.143 68.714 Z M 56.286 59.571 L 54.000 61.571 L 50.857 65.571 L 50.571 66.143 L 50.571 66.714 L 49.714 67.571 L 49.429 69.000 L 48.571 70.429 L 47.714 74.143 L 47.714 81.000 L 48.571 83.000 L 48.571 84.429 L 49.143 85.571 L 49.714 87.000 L 50.857 89.000 L 52.857 91.571 L 55.714 94.714 L 63.143 94.714 L 62.571 93.857 L 61.429 93.571 L 60.857 93.286 L 59.429 92.429 L 58.286 91.571 L 55.143 88.429 L 54.286 87.286 L 53.429 85.857 L 53.143 85.286 L 52.286 83.000 L 51.429 78.714 L 51.429 75.286 L 51.714 73.286 L 52.000 71.857 L 52.857 69.857 L 53.429 68.714 L 54.286 67.286 L 55.143 66.143 L 56.286 65.000 L 56.286 64.714 L 57.143 63.857 L 57.429 63.857 L 58.571 62.714 L 59.714 61.857 L 60.571 61.571 L 61.429 60.714 L 62.000 60.429 L 62.571 60.429 L 63.143 59.857 L 63.714 59.571 L 67.714 58.429 L 72.857 58.429 L 76.000 59.286 L 77.143 59.857 L 78.571 60.429 L 79.429 61.000 L 80.286 61.857 L 81.143 62.143 L 82.000 62.714 L 86.000 66.714 L 86.286 67.571 L 87.143 68.429 L 87.429 69.571 L 88.000 70.143 L 88.286 70.714 L 88.571 71.857 L 88.571 73.286 L 89.143 74.429 L 89.429 75.857 L 89.429 78.143 L 89.143 79.571 L 88.571 80.714 L 88.571 81.857 L 88.286 83.000 L 88.000 83.571 L 87.429 84.143 L 87.143 85.286 L 86.857 85.857 L 86.000 86.714 L 86.000 87.286 L 84.857 88.714 L 82.000 91.571 L 80.857 92.429 L 80.000 92.714 L 79.143 93.571 L 78.571 93.857 L 77.429 94.143 L 77.429 94.714 L 84.571 94.714 L 85.429 93.571 L 87.714 91.571 L 89.429 89.286 L 89.714 88.143 L 90.571 87.286 L 90.857 85.571 L 91.714 84.143 L 92.000 81.571 L 92.571 80.429 L 92.571 73.857 L 92.000 73.000 L 91.714 71.857 L 91.714 70.143 L 91.429 69.571 L 90.857 69.000 L 90.857 68.143 L 90.571 67.286 L 89.714 66.429 L 89.714 65.857 L 89.429 65.286 L 88.571 64.429 L 88.286 63.571 L 84.286 59.571 L 82.571 58.429 L 81.143 57.571 L 78.000 56.143 L 74.857 55.286 L 72.857 55.000 L 66.857 55.000 L 65.429 55.286 L 62.000 56.143 L 60.857 57.000 L 59.714 57.286 L 58.286 58.143 Z M 21.714 56.143 L 21.714 57.857 L 22.571 58.714 L 27.714 59.000 L 41.714 59.000 L 42.857 58.429 L 43.143 57.857 L 43.143 56.429 L 42.857 55.857 L 42.286 55.286 L 41.714 55.000 L 23.143 55.000 L 22.571 55.286 Z M 21.429 40.429 L 21.429 41.857 L 22.000 42.429 L 22.000 42.714 L 22.286 43.000 L 22.857 43.286 L 42.571 43.286 L 43.714 42.714 L 44.286 41.571 L 44.286 41.000 L 43.714 39.857 L 42.857 39.571 L 41.714 39.000 L 22.857 39.000 L 22.000 39.571 Z M 21.429 25.571 L 22.000 26.714 L 22.571 27.286 L 61.429 27.571 L 62.286 27.286 L 63.143 26.714 L 63.429 26.143 L 63.429 24.714 L 62.286 23.571 L 61.714 23.286 L 23.143 23.286 L 22.000 23.857 L 21.714 24.429 L 21.714 25.000 Z M 11.429 5.571 L 10.286 6.429 L 8.286 8.429 L 8.286 9.000 L 7.429 10.143 L 7.143 10.714 L 7.143 85.286 L 7.429 86.143 L 8.286 87.571 L 10.286 89.571 L 11.429 90.429 L 12.286 91.000 L 12.857 91.286 L 15.714 91.286 L 18.000 90.143 L 19.143 89.286 L 20.571 87.857 L 21.714 87.286 L 22.286 87.571 L 23.143 88.143 L 24.000 89.000 L 27.429 91.286 L 30.286 91.286 L 31.714 90.429 L 33.143 89.000 L 34.286 88.143 L 35.143 87.571 L 35.714 87.286 L 36.286 87.571 L 38.000 88.714 L 39.714 90.143 L 40.571 90.714 L 41.714 91.286 L 43.714 91.286 L 44.857 90.714 L 46.000 89.571 L 46.286 89.000 L 46.286 87.857 L 46.000 87.286 L 45.714 87.000 L 44.286 86.429 L 42.857 87.286 L 42.000 87.000 L 41.429 86.714 L 40.286 85.857 L 38.571 84.429 L 37.143 83.571 L 35.714 83.286 L 34.571 83.571 L 33.143 84.429 L 32.000 85.571 L 31.143 85.857 L 30.286 86.714 L 29.429 87.286 L 28.857 87.571 L 28.286 87.286 L 27.429 86.714 L 24.571 84.429 L 23.714 83.857 L 22.571 83.286 L 20.857 83.286 L 20.286 83.571 L 19.429 84.429 L 18.571 84.714 L 16.571 86.429 L 15.714 87.000 L 14.286 87.571 L 13.714 87.286 L 12.571 86.429 L 12.286 86.143 L 11.714 85.286 L 11.429 85.286 L 10.857 83.571 L 10.857 12.143 L 11.429 11.000 L 13.143 9.286 L 72.286 9.286 L 72.857 9.571 L 74.286 11.286 L 74.571 11.857 L 74.286 31.000 L 74.286 43.857 L 74.571 49.000 L 75.429 49.857 L 76.000 50.143 L 76.857 50.143 L 77.429 49.571 L 77.714 49.571 L 78.000 49.286 L 78.286 48.714 L 78.286 11.000 L 78.000 10.143 L 76.857 8.143 L 75.429 6.714 L 74.286 5.857 L 73.714 5.571 L 71.714 5.000 L 13.429 5.000 Z" fill="currentColor" fill-rule="evenodd" clip-rule="evenodd"/>
</svg>
