<svg xmlns="http://www.w3.org/2000/svg" viewBox="0 0 100 100" aria-label="Photo / Image">
  <title>Photo / Image</title>
  <path d="M 6.875 13.304 L 5.804 14.643 L 5.536 15.179 L 5.268 16.518 L 5.000 82.679 L 5.536 84.821 L 5.804 85.357 L 6.339 86.161 L 7.411 87.232 L 8.482 88.036 L 10.089 88.571 L 20.536 88.304 L 21.875 88.571 L 24.821 88.304 L 89.643 88.571 L 90.714 88.304 L 91.250 88.036 L 92.321 87.232 L 93.393 86.161 L 94.464 84.286 L 94.732 83.482 L 94.732 17.054 L 94.464 15.714 L 93.929 14.911 L 93.661 14.107 L 91.786 12.232 L 89.643 11.161 L 10.357 11.161 L 9.286 11.696 L 8.482 11.964 L 7.679 12.768 L 7.411 12.768 Z M 10.089 15.982 L 10.625 15.446 L 11.429 15.179 L 88.839 15.179 L 89.643 15.446 L 90.179 15.982 L 90.446 16.786 L 90.446 82.679 L 90.179 83.482 L 89.643 84.018 L 88.839 84.286 L 71.161 84.554 L 24.018 84.554 L 10.893 84.286 L 10.357 84.018 L 9.554 83.214 L 9.286 82.679 L 9.018 80.536 L 9.018 36.339 L 9.286 17.321 L 9.554 16.786 Z M 87.232 66.071 L 86.964 65.268 L 86.429 64.464 L 84.018 61.786 L 78.393 55.893 L 76.250 53.750 L 74.911 52.679 L 67.679 45.179 L 66.875 44.643 L 66.339 44.375 L 65.268 44.375 L 64.196 45.179 L 60.446 48.661 L 59.643 49.464 L 58.839 50.536 L 58.571 50.536 L 56.964 52.143 L 53.482 55.893 L 44.643 64.732 L 43.839 64.732 L 33.661 54.554 L 32.589 53.750 L 32.054 53.482 L 30.982 53.482 L 30.179 53.750 L 27.768 55.893 L 27.232 56.696 L 19.464 64.464 L 13.036 70.625 L 12.768 71.161 L 12.768 71.964 L 13.036 72.768 L 14.911 74.375 L 15.446 74.107 L 17.857 71.964 L 17.857 71.696 L 20.804 69.018 L 30.714 59.107 L 30.714 58.839 L 32.054 58.571 L 38.482 64.732 L 47.589 74.107 L 48.125 74.375 L 49.464 74.375 L 50.804 73.036 L 50.804 71.696 L 47.589 68.482 L 47.589 67.411 L 50.268 64.732 L 55.089 60.179 L 65.536 49.464 L 66.339 49.464 L 85.357 68.750 L 86.161 68.750 L 86.696 68.482 L 86.964 67.946 L 87.232 66.875 Z M 26.964 26.429 L 25.089 26.964 L 23.214 28.036 L 21.339 29.911 L 20.536 30.982 L 19.732 32.589 L 19.464 33.393 L 19.464 37.411 L 19.732 38.214 L 20.268 39.286 L 20.536 40.089 L 21.339 41.161 L 22.679 42.500 L 23.750 43.304 L 24.554 43.571 L 25.357 44.107 L 26.429 44.375 L 30.179 44.375 L 31.250 44.107 L 32.054 43.571 L 32.857 43.304 L 35.804 40.357 L 36.875 38.214 L 37.143 36.875 L 37.143 33.929 L 36.875 32.589 L 36.339 31.518 L 35.536 30.179 L 33.393 28.036 L 31.518 26.964 L 29.643 26.429 Z M 27.500 30.446 L 29.107 30.446 L 29.911 30.714 L 30.714 31.250 L 32.321 32.857 L 32.589 33.393 L 32.857 34.732 L 32.857 35.804 L 32.589 37.143 L 32.054 38.214 L 30.446 39.821 L 29.643 40.089 L 26.696 40.089 L 25.625 39.554 L 24.018 37.946 L 23.482 36.339 L 23.482 34.196 L 23.750 33.393 L 24.018 32.857 L 25.625 31.250 L 26.696 30.714 Z" fill="currentColor" fill-rule="evenodd" clip-rule="evenodd"/>
</svg>
