<svg xmlns="http://www.w3.org/2000/svg" viewBox="0 0 100 100" aria-label="Plate Camera Scan">
  <title>Plate Camera Scan</title>
  <path d="M 94.337 70.786 L 93.452 70.344 L 92.789 70.565 L 91.904 71.450 L 91.683 71.892 L 91.683 81.400 L 90.135 82.948 L 89.693 83.170 L 80.627 83.170 L 79.963 83.391 L 79.300 84.054 L 79.300 85.381 L 79.963 86.044 L 90.799 86.044 L 92.568 85.160 L 93.673 84.054 L 93.894 83.391 L 94.558 82.727 L 94.779 81.843 L 94.779 71.671 Z M 5.885 70.565 L 5.221 71.229 L 5.000 71.671 L 5.000 82.064 L 5.885 83.612 L 7.654 85.381 L 8.317 85.602 L 8.980 86.044 L 19.816 86.044 L 20.258 85.602 L 20.479 84.496 L 20.479 84.054 L 20.258 83.612 L 19.816 83.391 L 19.152 83.170 L 17.604 83.391 L 9.865 83.170 L 9.201 82.727 L 8.538 82.064 L 8.096 81.400 L 8.096 75.651 L 7.875 71.229 L 7.211 70.565 Z M 10.307 33.857 L 10.307 35.184 L 10.086 35.405 L 10.086 61.941 L 10.307 62.826 L 10.086 64.373 L 10.307 65.921 L 11.192 67.469 L 12.297 68.575 L 13.182 69.238 L 13.624 69.459 L 14.951 69.902 L 84.828 69.902 L 86.818 69.238 L 87.703 68.575 L 88.587 67.690 L 89.251 66.806 L 89.914 65.258 L 90.135 64.373 L 90.135 35.184 L 89.914 34.300 L 89.029 32.531 L 87.703 31.204 L 86.818 30.541 L 85.049 29.877 L 32.641 30.098 L 15.172 29.877 L 13.624 30.319 L 13.182 30.541 L 12.518 30.983 L 11.192 32.310 Z M 13.182 35.184 L 13.403 34.742 L 14.730 33.415 L 15.614 32.973 L 84.828 32.973 L 85.270 33.194 L 86.597 34.521 L 87.260 35.405 L 87.039 38.501 L 87.039 39.828 L 87.260 43.808 L 87.260 63.489 L 87.039 64.373 L 86.597 65.037 L 85.049 66.585 L 84.165 66.806 L 15.393 66.806 L 14.730 66.364 L 14.066 65.700 L 14.066 65.479 L 13.182 64.595 Z M 52.985 48.010 L 52.101 48.452 L 51.658 49.115 L 51.437 49.558 L 51.437 50.442 L 51.658 50.885 L 52.543 51.769 L 53.870 51.769 L 54.312 51.548 L 55.418 50.442 L 55.418 49.558 L 55.197 49.115 L 54.312 48.231 L 53.649 48.010 Z M 77.310 41.155 L 75.983 42.039 L 74.877 43.366 L 74.656 44.029 L 74.656 44.472 L 74.877 44.693 L 75.098 45.577 L 75.541 45.799 L 76.646 45.799 L 78.194 44.251 L 78.636 44.029 L 79.300 44.029 L 80.184 44.914 L 80.184 46.904 L 79.300 47.789 L 78.857 48.010 L 78.415 48.010 L 77.973 48.231 L 77.752 48.452 L 77.531 48.894 L 77.531 50.221 L 77.752 50.663 L 78.194 50.885 L 78.857 50.885 L 79.742 51.327 L 79.963 51.548 L 79.963 51.769 L 80.405 52.211 L 80.627 53.096 L 80.627 53.759 L 80.405 54.423 L 80.184 54.865 L 79.742 55.307 L 78.194 55.307 L 77.088 53.980 L 76.646 53.538 L 76.204 53.317 L 75.541 53.538 L 75.098 53.759 L 74.656 54.644 L 74.656 55.086 L 74.877 56.192 L 75.098 56.634 L 76.425 57.961 L 77.973 58.624 L 79.963 58.624 L 80.627 58.403 L 81.511 57.961 L 82.838 56.634 L 83.722 54.865 L 83.722 52.211 L 83.280 51.327 L 83.059 50.663 L 82.174 49.779 L 82.174 48.673 L 82.838 48.010 L 83.059 47.568 L 83.059 44.029 L 82.174 42.482 L 81.511 41.818 L 80.848 41.376 L 80.405 41.155 Z M 67.580 41.155 L 66.253 42.039 L 65.147 43.145 L 64.484 44.472 L 64.484 45.356 L 65.369 46.241 L 65.811 46.462 L 66.253 46.462 L 66.695 46.241 L 67.138 45.799 L 67.138 45.577 L 67.801 44.693 L 68.464 44.029 L 69.128 44.029 L 70.233 45.135 L 70.455 45.577 L 70.455 46.683 L 69.570 48.673 L 68.686 49.558 L 68.686 50.000 L 68.022 50.663 L 67.801 51.327 L 66.916 52.211 L 66.253 53.096 L 65.811 54.201 L 65.147 54.865 L 64.926 55.528 L 64.484 56.192 L 64.484 57.518 L 64.926 57.961 L 65.811 58.403 L 72.666 58.182 L 73.108 57.961 L 73.329 57.518 L 73.329 56.192 L 72.666 55.528 L 71.781 55.307 L 69.791 55.528 L 69.128 55.528 L 68.686 54.865 L 68.907 54.423 L 69.791 53.538 L 70.455 52.654 L 70.676 51.990 L 71.339 51.327 L 71.560 50.885 L 71.560 50.442 L 71.781 50.000 L 72.445 49.337 L 72.445 48.673 L 73.108 47.568 L 73.329 46.904 L 73.329 44.472 L 73.108 43.808 L 72.445 42.703 L 71.560 41.818 L 70.897 41.376 L 70.455 41.155 Z M 60.504 41.155 L 60.061 41.376 L 59.398 41.818 L 58.735 42.482 L 58.071 42.703 L 56.966 43.587 L 56.523 44.029 L 56.302 44.472 L 56.302 45.356 L 56.523 45.799 L 56.966 46.241 L 58.071 46.241 L 58.735 45.799 L 59.177 46.241 L 59.398 46.904 L 59.398 55.749 L 59.177 55.971 L 59.177 56.855 L 59.398 57.518 L 60.061 58.182 L 60.504 58.403 L 60.946 58.403 L 61.830 57.961 L 62.273 57.297 L 62.273 42.482 L 62.052 42.039 L 61.388 41.376 L 60.946 41.155 Z M 43.477 41.155 L 42.150 41.818 L 40.823 43.145 L 40.381 43.808 L 39.717 45.356 L 39.717 53.096 L 39.939 54.644 L 40.381 55.528 L 40.602 56.192 L 41.265 57.076 L 41.486 57.297 L 42.371 57.961 L 43.919 58.624 L 45.467 58.624 L 46.130 58.403 L 47.457 57.740 L 48.342 57.076 L 48.563 56.855 L 48.563 56.634 L 49.005 56.192 L 49.447 55.307 L 49.447 53.538 L 48.563 52.654 L 47.457 52.654 L 46.794 53.317 L 46.572 53.759 L 46.572 54.201 L 46.351 54.644 L 45.909 55.086 L 45.246 55.528 L 44.361 55.528 L 43.919 55.307 L 43.256 54.644 L 43.034 53.980 L 43.034 45.799 L 43.256 45.135 L 43.698 44.472 L 44.140 44.029 L 44.582 43.808 L 45.246 43.808 L 46.130 44.693 L 46.572 45.356 L 46.572 45.799 L 46.794 46.241 L 47.015 46.462 L 47.457 46.683 L 48.342 46.683 L 48.784 46.462 L 49.226 46.020 L 49.447 45.577 L 49.447 44.251 L 49.005 43.366 L 47.457 41.818 L 46.351 41.155 Z M 29.545 41.155 L 28.882 41.818 L 28.661 50.000 L 28.661 57.297 L 28.882 57.740 L 29.324 58.182 L 29.767 58.403 L 33.747 58.403 L 34.853 58.182 L 35.516 57.961 L 36.843 57.076 L 37.506 56.413 L 37.948 55.749 L 38.391 54.423 L 38.391 52.211 L 37.948 50.885 L 37.064 50.000 L 36.843 49.558 L 36.843 49.115 L 37.727 48.010 L 37.948 47.568 L 37.948 44.472 L 37.727 43.808 L 37.285 43.145 L 36.400 42.260 L 34.410 41.155 Z M 32.199 51.106 L 33.747 51.106 L 34.410 51.548 L 35.074 52.211 L 35.295 52.875 L 35.295 53.759 L 35.074 54.201 L 34.189 55.086 L 33.747 55.307 L 32.420 55.528 L 31.757 54.865 L 31.757 51.548 Z M 33.084 44.029 L 33.526 44.251 L 34.189 44.693 L 34.853 45.356 L 35.074 45.799 L 35.074 46.462 L 34.631 47.125 L 33.747 48.010 L 32.641 48.231 L 32.199 48.010 L 31.757 47.568 L 31.757 44.693 L 32.420 44.029 Z M 20.700 41.155 L 20.037 41.818 L 19.816 42.260 L 19.373 43.587 L 19.152 44.693 L 19.152 45.799 L 18.489 47.789 L 18.268 50.000 L 18.047 50.663 L 17.604 51.327 L 17.383 52.211 L 17.383 53.538 L 17.162 54.423 L 16.720 55.307 L 16.499 56.192 L 16.499 57.740 L 16.941 58.182 L 18.268 58.182 L 18.710 57.961 L 19.373 57.297 L 19.595 56.413 L 19.595 55.528 L 20.479 54.644 L 20.921 54.423 L 22.248 54.423 L 23.133 54.644 L 23.575 55.086 L 23.796 55.749 L 23.796 56.634 L 24.238 57.518 L 24.902 58.182 L 25.565 58.403 L 26.229 58.403 L 26.671 58.182 L 27.113 57.740 L 27.334 57.297 L 27.334 56.855 L 27.113 56.634 L 27.113 55.971 L 26.671 55.307 L 26.450 54.201 L 26.450 53.317 L 26.229 52.432 L 25.786 51.769 L 25.565 50.885 L 25.565 49.779 L 25.344 48.894 L 24.902 48.231 L 24.681 47.346 L 24.681 46.020 L 24.459 45.135 L 24.017 44.251 L 24.017 43.145 L 23.796 42.260 L 23.575 41.818 L 23.133 41.376 L 22.690 41.155 Z M 22.248 47.568 L 22.469 48.010 L 22.690 48.894 L 22.912 50.663 L 22.912 51.106 L 22.690 51.548 L 21.143 51.769 L 20.700 51.327 L 20.700 50.663 L 21.143 49.558 L 21.143 48.010 L 21.364 47.568 Z M 79.521 14.398 L 79.300 14.840 L 79.300 16.167 L 79.742 16.609 L 80.627 17.052 L 88.808 17.052 L 89.914 16.830 L 90.356 17.052 L 91.462 18.157 L 91.683 18.600 L 91.683 19.263 L 91.904 19.484 L 91.683 22.801 L 91.904 28.329 L 92.568 29.214 L 93.894 29.435 L 94.558 28.771 L 94.779 27.887 L 94.779 18.157 L 94.558 17.273 L 93.894 16.609 L 93.673 15.946 L 93.010 15.283 L 92.125 14.619 L 90.577 13.956 L 80.405 13.956 Z M 20.258 14.398 L 19.373 13.956 L 10.307 13.735 L 10.086 13.956 L 9.423 13.956 L 8.759 14.177 L 7.432 14.840 L 6.990 15.283 L 6.769 15.283 L 6.548 15.504 L 5.885 16.388 L 5.000 17.936 L 5.000 28.329 L 5.221 28.771 L 5.885 29.214 L 6.548 29.435 L 7.432 28.993 L 7.654 28.771 L 7.875 28.329 L 7.875 19.263 L 8.096 18.600 L 9.423 17.273 L 10.307 16.830 L 19.373 16.830 L 20.258 16.388 L 20.479 15.946 L 20.479 14.840 Z" fill="currentColor" fill-rule="evenodd" clip-rule="evenodd"/>
</svg>
